<?xml version="1.0" encoding="iso-8859-1"?>
<!-- Uploaded to: SVG Repo, www.svgrepo.com, Generator: SVG Repo Mixer Tools -->
<svg fill="#000000" version="1.1" id="Capa_1" xmlns="http://www.w3.org/2000/svg" xmlns:xlink="http://www.w3.org/1999/xlink" 
	 viewBox="0 0 490 490" xml:space="preserve">
<g>
	<path d="M417.146,327.367l24.958,4.825v25.474L490,365.629V124.364l-47.896,7.97v17.914l-24.958,4.823V81.918H0v326.164h417.146
		V327.367z M417.146,170.667l40.27-7.783v-17.578l17.271-2.871v205.13l-17.271-2.879v-25.13l-40.27-7.783V170.667z M401.833,392.77
		H15.313V97.23h386.521V392.77z"/>
	<path d="M44.763,344.158h329.43v-198.32H44.763V344.158z M60.075,161.15h298.805v167.695H60.075V161.15z"/>
	<rect x="44.762" y="112.439" width="33.671" height="18.977"/>
	<rect x="103.914" y="112.439" width="33.671" height="18.977"/>
	<rect x="163.066" y="112.439" width="33.671" height="18.977"/>
	<rect x="222.218" y="112.439" width="33.671" height="18.977"/>
	<rect x="281.37" y="112.439" width="33.671" height="18.977"/>
	<rect x="340.522" y="112.439" width="33.671" height="18.977"/>
	<rect x="44.762" y="358.58" width="33.671" height="18.977"/>
	<rect x="103.914" y="358.58" width="33.671" height="18.977"/>
	<rect x="163.066" y="358.58" width="33.671" height="18.977"/>
	<rect x="222.218" y="358.58" width="33.671" height="18.977"/>
	<rect x="281.37" y="358.58" width="33.671" height="18.977"/>
	<rect x="340.522" y="358.58" width="33.671" height="18.977"/>
	<path d="M163.712,313.052l126.949-67.665l-126.949-67.673V313.052z M179.025,203.233l79.082,42.154l-79.082,42.154V203.233z"/>
</g>
</svg>